<svg width="32" height="32" viewBox="0 0 32 32" fill="none" xmlns="http://www.w3.org/2000/svg">
<foreignObject x="-4" y="-4" width="40" height="40"><div xmlns="http://www.w3.org/1999/xhtml" style="backdrop-filter:blur(2px);clip-path:url(#bgblur_0_438_7343_clip_path);height:100%;width:100%"></div></foreignObject><rect data-figma-bg-blur-radius="4" width="32" height="32" rx="16" fill="white" fill-opacity="0.5"/>
<path d="M6.00024 9.54257V7.77128C6.00024 7.28418 6.17361 6.86719 6.52036 6.52031C6.8671 6.17344 7.28392 6 7.77084 6H9.54143C9.79226 6 10.0025 6.08487 10.1722 6.25462C10.3419 6.42437 10.4267 6.63471 10.4267 6.88564C10.4267 7.13657 10.3419 7.34691 10.1722 7.51666C10.0025 7.68641 9.79226 7.77128 9.54143 7.77128H7.77084V9.54257C7.77084 9.7935 7.68599 10.0038 7.51631 10.1736C7.34663 10.3433 7.13637 10.4282 6.88554 10.4282C6.63471 10.4282 6.42445 10.3433 6.25477 10.1736C6.08509 10.0038 6.00024 9.7935 6.00024 9.54257ZM9.54143 25.9997H7.77084C7.28392 25.9997 6.8671 25.8262 6.52036 25.4793C6.17361 25.1325 6.00024 24.7155 6.00024 24.2284V22.4571C6.00024 22.2062 6.08509 21.9958 6.25477 21.8261C6.42445 21.6563 6.63471 21.5715 6.88554 21.5715C7.13637 21.5715 7.34663 21.6563 7.51631 21.8261C7.68599 21.9958 7.77084 22.2062 7.77084 22.4571V24.2284H9.54143C9.79226 24.2284 10.0025 24.3133 10.1722 24.483C10.3419 24.6527 10.4267 24.8631 10.4267 25.114C10.4267 25.365 10.3419 25.5753 10.1722 25.745C10.0025 25.9148 9.79226 25.9997 9.54143 25.9997Z" fill="#31112C"/>
<path d="M26.0002 24.2294L26.0002 22.4588C26.0002 22.208 25.9154 21.9977 25.7456 21.828C25.5759 21.6584 25.3655 21.5735 25.1146 21.5735C24.8637 21.5735 24.6533 21.6584 24.4836 21.828C24.3138 21.9977 24.229 22.208 24.229 22.4588L24.229 24.2294L22.4577 24.2294C22.2067 24.2294 21.9964 24.3142 21.8267 24.4839C21.6569 24.6536 21.572 24.8639 21.572 25.1147C21.572 25.3655 21.6569 25.5758 21.8267 25.7455C21.9964 25.9152 22.2067 26 22.4577 26L24.229 26C24.7161 26 25.1331 25.8266 25.4799 25.4799C25.8268 25.1331 26.0002 24.7163 26.0002 24.2294Z" fill="#31112C"/>
<path d="M24.2297 6L22.4591 6C22.2082 6 21.998 6.08488 21.8283 6.25463C21.6586 6.42438 21.5738 6.63471 21.5738 6.88564C21.5738 7.13657 21.6586 7.34691 21.8283 7.51666C21.998 7.68641 22.2082 7.77129 22.4591 7.77129H24.2297V9.54257C24.2297 9.7935 24.3145 10.0038 24.4842 10.1736C24.6539 10.3433 24.8641 10.4282 25.1149 10.4282C25.3658 10.4282 25.576 10.3433 25.7457 10.1736C25.9154 10.0038 26.0002 9.7935 26.0002 9.54257V7.77129C26.0002 7.28418 25.8269 6.86719 25.4801 6.52031C25.1334 6.17344 24.7166 6 24.2297 6Z" fill="#31112C"/>
<mask id="mask0_438_7343" style="mask-type:alpha" maskUnits="userSpaceOnUse" x="6" y="8" width="20" height="16">
<path d="M6.00024 8H25.0002V24H6.00024V8Z" fill="#D9D9D9"/>
</mask>
<g mask="url(#mask0_438_7343)">
<path d="M10.8492 15.1833L9.99071 15.6111C9.79039 15.7148 9.57576 15.7407 9.34683 15.6889C9.11789 15.637 8.94619 15.5204 8.83172 15.3389L7.11471 12.6167C7.00024 12.4352 6.97163 12.2407 7.02886 12.0333C7.08609 11.8259 7.21487 11.6704 7.41519 11.5667L12.3516 9H13.854C13.9828 9 14.0865 9.03565 14.1652 9.10694C14.2439 9.17824 14.2832 9.27222 14.2832 9.38889V9.77778C14.2832 10.2056 14.4514 10.5718 14.7876 10.8764C15.1239 11.181 15.5281 11.3333 16.0002 11.3333C16.4724 11.3333 16.8766 11.181 17.2129 10.8764C17.5491 10.5718 17.7173 10.2056 17.7173 9.77778V9.38889C17.7173 9.27222 17.7566 9.17824 17.8353 9.10694C17.914 9.03565 18.0177 9 18.1465 9H19.6489L24.5853 11.5667C24.7856 11.6704 24.9144 11.8259 24.9716 12.0333C25.0289 12.2407 25.0002 12.4352 24.8858 12.6167L23.1688 15.3389C23.0543 15.5204 22.8862 15.6338 22.6644 15.6792C22.4426 15.7245 22.2244 15.6954 22.0098 15.5917L21.1513 15.2028V22.2222C21.1513 22.4426 21.069 22.6273 20.9045 22.7764C20.7399 22.9255 20.536 23 20.2928 23H11.7077C11.4645 23 11.2606 22.9255 11.096 22.7764C10.9315 22.6273 10.8492 22.4426 10.8492 22.2222V15.1833ZM12.5662 12.5778V21.4444H19.4343V12.5778L22.0956 13.9L22.9971 12.5389L19.3055 10.5944C19.0909 11.2556 18.6867 11.8032 18.0929 12.2375C17.4991 12.6718 16.8015 12.8889 16.0002 12.8889C15.199 12.8889 14.5014 12.6718 13.9076 12.2375C13.3138 11.8032 12.9096 11.2556 12.695 10.5944L9.00342 12.5389L9.90485 13.9L12.5662 12.5778Z" fill="#31112C"/>
</g>
<defs>
<clipPath id="bgblur_0_438_7343_clip_path" transform="translate(4 4)"><rect width="32" height="32" rx="16"/>
</clipPath></defs>
</svg>
